<?xml version="1.0" encoding="UTF-8" standalone="no"?>
<!-- Created with Inkscape (http://www.inkscape.org/) -->

<svg
   xmlns:dc="http://purl.org/dc/elements/1.1/"
   xmlns:cc="http://creativecommons.org/ns#"
   xmlns:rdf="http://www.w3.org/1999/02/22-rdf-syntax-ns#"
   xmlns:svg="http://www.w3.org/2000/svg"
   xmlns="http://www.w3.org/2000/svg"
   xmlns:sodipodi="http://sodipodi.sourceforge.net/DTD/sodipodi-0.dtd"
   xmlns:inkscape="http://www.inkscape.org/namespaces/inkscape"
   id="svg2"
   version="1.1"
   inkscape:version="0.48.3.1 r9886"
   width="273.34784"
   height="83.000008"
   xml:space="preserve"
   sodipodi:docname="hbz+_RGB.eps"><metadata
     id="metadata8"><rdf:RDF><cc:Work
         rdf:about=""><dc:format>image/svg+xml</dc:format><dc:type
           rdf:resource="http://purl.org/dc/dcmitype/StillImage" /><dc:title></dc:title></cc:Work></rdf:RDF></metadata><defs
     id="defs6" /><sodipodi:namedview
     pagecolor="#ffffff"
     bordercolor="#666666"
     borderopacity="1"
     objecttolerance="10"
     gridtolerance="10"
     guidetolerance="10"
     inkscape:pageopacity="0"
     inkscape:pageshadow="2"
     inkscape:window-width="995"
     inkscape:window-height="572"
     id="namedview4"
     showgrid="false"
     fit-margin-top="0"
     fit-margin-left="0"
     fit-margin-right="0"
     fit-margin-bottom="0"
     inkscape:zoom="2.0735972"
     inkscape:cx="95.812635"
     inkscape:cy="73.988983"
     inkscape:window-x="1351"
     inkscape:window-y="178"
     inkscape:window-maximized="0"
     inkscape:current-layer="g10" /><g
     id="g10"
     inkscape:groupmode="layer"
     inkscape:label="ink_ext_XXXXXX"
     transform="matrix(1.25,0,0,-1.25,0,83.00004)"><g
       id="g12"
       transform="matrix(0.04596302,0,0,0.04596302,0,1.4715464e-5)"><path
         d="m 3223.31,503.762 0,132.215 -98.32,0 c -41.81,0 -103.97,0 -127.7,-1.133 l 221.5,327.718 0,102.838 -393.28,0 0,-128.826 99.44,0 c 54.25,0 98.33,1.125 119.8,2.258 l -226.03,-332.238 0,-102.832 404.59,0 0,0"
         style="fill:#ef8923;fill-opacity:1;fill-rule:nonzero;stroke:none"
         id="path14"
         inkscape:connector-curvature="0" /><path
         d="m 1640.61,1217.96 0,-714.198 144.66,0 0,271.211 c 0,98.316 56.5,181.941 129.96,181.941 54.24,0 70.06,-35.035 70.06,-93.797 l 0,-359.355 143.53,0 0,394.386 c 0,98.317 -40.68,179.682 -167.26,179.682 -88.15,0 -152.57,-41.81 -185.34,-105.096 l -1.13,1.129 c 7.91,32.777 10.18,80.237 10.18,114.137 l 0,241.83 c -83.63,2.26 -170.66,-1.12 -242.98,-10.17 l 0,-90.4 c 32.77,-2.26 71.19,-6.78 98.32,-11.3 l 0,0"
         style="fill:#ef8923;fill-opacity:1;fill-rule:nonzero;stroke:none"
         id="path16"
         inkscape:connector-curvature="0" /><path
         d="m 2395.35,1331.45 c -83.63,2.26 -170.64,-1.12 -242.97,-10.16 l 0,-90.41 c 32.77,-2.26 71.19,-6.78 98.32,-11.3 l 0,-698.389 c 64.42,-18.086 127.7,-27.117 209.07,-27.117 193.25,0 304,131.082 304,320.938 0,166.121 -72.32,263.308 -206.81,263.308 -79.11,0 -141.27,-38.43 -169.52,-99.449 l -1.13,0 c 5.65,29.379 9.04,75.719 9.04,109.619 l 0,242.96 z m 215.86,-531.126 c 0,-139.004 -58.77,-190.988 -141.27,-190.988 -30.51,0 -54.25,3.391 -74.59,10.176 l 0,158.203 c 0,93.801 45.21,180.816 119.79,180.816 65.55,0 96.07,-53.113 96.07,-158.207 l 0,0"
         style="fill:#ef8923;fill-opacity:1;fill-rule:evenodd;stroke:none"
         id="path18"
         inkscape:connector-curvature="0" /><path
         d="m 884.746,700.176 0,541.854 -642.754,0 0,104.71 854.688,0.02 0.04,-646.584 -211.974,0 0,0"
         style="fill:#236497;fill-opacity:1;fill-rule:nonzero;stroke:none"
         id="path20"
         inkscape:connector-curvature="0" /><path
         d="m 376.902,670.109 749.888,0 0,676.431 129.28,-0.02 -0.02,-842.387 -879.148,0 0,165.976"
         style="fill:#236497;fill-opacity:1;fill-rule:nonzero;stroke:none"
         id="path22"
         inkscape:connector-curvature="0" /><path
         d="m 346.848,1211.97 0.007,-737.896 749.865,0 -0.04,-169.941 -854.688,0 0,907.837 104.856,0 0,0"
         style="fill:#236497;fill-opacity:1;fill-rule:nonzero;stroke:none"
         id="path24"
         inkscape:connector-curvature="0" /><path
         d="m 1096.68,1376.82 -884.742,0 0,-872.687 -211.938,0 0,940.477 1096.68,0.03 0,-67.82"
         style="fill:#236497;fill-opacity:1;fill-rule:nonzero;stroke:none"
         id="path26"
         inkscape:connector-curvature="0" /><path
         d="m 1855.27,272.16 c -1.6,-5.578 -3.6,-13.351 -6.31,-23.254 -5.44,-19.863 -13.73,-48.203 -27.48,-84.344 -11.1,-30.187 -28.09,-69.5425 -41.91,-69.5425 -9.02,0.293 -12.3,1.0157 -14.65,8.2225 -2,6.125 -3.78,17.735 -11.78,39.953 -6.34,17.559 -10.15,37.586 -12.69,57.313 -2.29,17.773 -3.56,35.359 -4.74,50.793 -2.64,-4.102 -6.96,-10.938 -11.8,-19.133 -7.95,-13.477 -17.34,-30.633 -23.03,-45.391 -15.42,-38.886 -22.84,-59.843 -26.99,-71.453 -2.09,-5.879 -3.36,-9.394 -4.39,-11.64 -1.09,-2.383 -2.08,-3.664 -3.57,-4.6918 -7.97,-4.7617 -16.66,-1.0313 -19.41,2.3948 -2.82,3.82 -2.57,6.25 -2.05,9.933 0.25,1.707 0.57,3.836 0.66,6.746 0.1,2.93 -0.03,6.641 -0.66,11.516 -9.13,73.602 -16.19,109.277 -20.58,127.391 -2.18,9.043 -3.7,13.711 -4.49,16.543 -0.81,2.976 -0.96,4.453 0.07,6.699 3.38,7.363 9.81,12.922 20.17,6.133 2.47,-1.524 3.82,-3.368 4.68,-6.563 0.81,-2.996 1.22,-7.332 1.84,-13.918 1.25,-13.269 3.39,-36.472 11.1,-78.738 2.81,-15.957 4.67,-29.981 6.2,-41.758 1.41,4.152 3.41,9.856 5.86,16.348 5.07,13.437 12.03,30.285 19.64,43.898 10.86,19.539 21.37,37.363 29.66,51.883 8.32,14.57 14.27,25.559 16.21,31.613 1.92,6.903 16.73,7.332 20.17,2.188 1.68,-2.442 2.25,-5.02 2.38,-8.469 0.13,-3.32 -0.16,-7.695 -0.37,-14.043 -0.43,-12.539 -0.57,-32.851 3.42,-68.086 1.98,-17.578 4.76,-31.113 8.2,-43.73 3.19,-11.7 6.97,-22.618 11.23,-35.203 5.76,8.582 24.35,40.292 47.84,121.14 6.99,24.074 8.98,39.453 11.34,48.606 2.48,9.636 5.73,13.464 15.3,12.488 8,-0.637 10.76,-5.098 10.32,-10.274 -0.4,-4.668 -3.39,-9.675 -5.85,-12.285 -0.71,-0.664 -1.86,-3.465 -3.54,-9.285 l 0,0"
         style="fill:#236497;fill-opacity:1;fill-rule:nonzero;stroke:none"
         id="path28"
         inkscape:connector-curvature="0" /><path
         d="m 1986.47,245.988 c 1.98,-1.281 5.39,-3.058 8.42,-4.972 1.55,-0.985 3.06,-2.039 4.23,-3.114 1.09,-0.996 2.25,-2.324 2.38,-3.879 0.66,-4.031 -1.47,-8.105 -7.7,-8.105 -3.09,0 -5.5,0.977 -7.35,1.875 l -2.31,1.164 c -0.66,0.301 -0.99,0.379 -1.17,0.379 -4.34,-0.125 -7.17,-1.453 -11.83,-5.371 -4.81,-4.063 -11.22,-10.613 -22.49,-20.711 -13.79,-12.356 -20.47,-30.078 -19.18,-37.539 1.33,-8.371 5.59,-13.039 11.86,-16.516 3.2,-1.758 6.91,-3.211 11.06,-4.656 4.17,-1.465 8.73,-2.902 13.45,-4.621 4.35,-1.777 8.55,-3.262 12.39,-4.746 3.86,-1.485 7.49,-3.016 10.66,-4.891 6.44,-3.82 10.96,-9.094 12.03,-18.262 1.65,-13.5074 -49.56,-39.5699 -53.29,-38.9449 -8.38,0.2891 -15.46,7.0781 -9.81,14.5977 l 1.27,1.1445 1.77,1.0039 c 1.37,0.6953 3.21,1.5547 5.37,2.5196 4.25,1.914 9.74,4.2968 15.12,6.8945 5.37,2.5897 10.55,5.3517 14.25,8.0277 4.01,2.902 5.32,5.031 5.1,6.269 -0.38,2.363 -3.58,4.563 -10.13,6.973 -6.27,2.316 -14.47,4.484 -22.73,7.402 -16.52,5.84 -34.32,14.981 -36.59,35.059 -1.93,17.394 7.09,33.41 18.8,46.926 5.88,6.785 12.49,13.007 18.86,18.543 6.36,5.519 12.49,10.351 17.51,14.425 6.35,5.711 15.65,5.008 20.05,3.125 l 0,0"
         style="fill:#236497;fill-opacity:1;fill-rule:nonzero;stroke:none"
         id="path30"
         inkscape:connector-curvature="0" /><path
         d="m 2084.96,245.988 c 1.98,-1.281 5.4,-3.058 8.43,-4.972 1.54,-0.985 3.06,-2.039 4.23,-3.114 1.08,-0.996 2.24,-2.324 2.37,-3.879 0.66,-4.031 -1.47,-8.105 -7.69,-8.105 -3.09,0 -5.51,0.977 -7.36,1.875 l -2.31,1.164 c -0.66,0.301 -0.98,0.379 -1.17,0.379 -4.33,-0.125 -7.16,-1.453 -11.82,-5.371 -4.82,-4.063 -11.23,-10.613 -22.5,-20.711 -13.78,-12.356 -20.46,-30.078 -19.18,-37.539 1.34,-8.371 5.59,-13.039 11.86,-16.516 3.2,-1.758 6.91,-3.211 11.06,-4.656 4.17,-1.465 8.73,-2.902 13.46,-4.621 4.34,-1.777 8.54,-3.262 12.38,-4.746 3.87,-1.485 7.49,-3.008 10.66,-4.891 6.44,-3.82 10.96,-9.094 12.03,-18.262 1.65,-13.5074 -49.55,-39.5699 -53.29,-38.9449 -8.37,0.2891 -15.45,7.0781 -9.81,14.5977 l 1.27,1.1445 1.78,1.0039 c 1.36,0.6953 3.21,1.5547 5.37,2.5196 4.25,1.914 9.73,4.2968 15.11,6.8945 5.38,2.5897 10.55,5.3517 14.26,8.0277 4,2.902 5.32,5.031 5.1,6.269 -0.39,2.363 -3.59,4.563 -10.13,6.973 -6.28,2.316 -14.48,4.484 -22.74,7.402 -16.52,5.84 -34.32,14.981 -36.58,35.059 -1.94,17.394 7.09,33.41 18.79,46.926 5.88,6.785 12.48,13.007 18.87,18.543 6.36,5.519 12.48,10.351 17.5,14.425 6.35,5.711 15.66,5.008 20.05,3.125 l 0,0"
         style="fill:#236497;fill-opacity:1;fill-rule:nonzero;stroke:none"
         id="path32"
         inkscape:connector-curvature="0" /><path
         d="m 2230.27,140.625 c -0.75,-0.418 -2.39,-1.641 -4.78,-3.496 l -8.81,-6.863 c -7.01,-5.391 -16,-12.032 -25.77,-18.098 -19.31,-11.973 -42.61,-22.2735 -59.41,-14.4258 -22.15,10.3238 -36.82,39.6208 -31.52,64.0668 9.37,42.91 73.82,69.961 104.97,48.054 1.44,-1.101 1.12,-2.801 0.69,-3.789 -0.47,-1.043 -1.34,-2.187 -2.41,-3.359 -2.18,-2.371 -5.6,-5.32 -9.72,-8.496 -8.23,-6.348 -19.52,-13.817 -29.88,-19.696 -6.13,-3.496 -12.74,-6.171 -20.04,-8.691 -7.04,-2.422 -14.79,-4.707 -23.47,-7.453 l -0.43,-1.649 c -0.35,-1.621 -0.71,-3.957 -0.71,-6.835 0,-5.762 1.45,-13.801 7.25,-22.629 5.02,-8.348 11.43,-14.844 22.49,-14.317 21.82,0.821 64.8,35.637 67.51,39.426 l 2.02,3.758 c 0.84,1.484 1.87,3.117 3.13,4.465 2.64,2.851 6.51,4.539 11.25,1.386 8.91,-6.504 4.54,-16.574 -2.36,-21.359 l 0,0 z m -62.75,55.684 c -3.38,-2.157 -6.68,-4.082 -10.27,-6.668 -7.16,-4.895 -19.32,-8.664 -26.39,-10.586 4.14,4.179 11.03,10.476 17.85,13.965 8.4,4.324 16.01,6.347 21.52,7.292 l 3.83,0.528 c -2.26,-1.738 -4.4,-3.172 -6.54,-4.531 l 0,0"
         style="fill:#236497;fill-opacity:1;fill-rule:evenodd;stroke:none"
         id="path34"
         inkscape:connector-curvature="0" /><path
         d="m 2261.51,93.9375 c -3.11,-1.582 -9.58,-4.2578 -14.13,2.3828 -2.42,3.4453 -2.28,8.9647 -1.73,18.6017 0.57,9.894 1.71,24.922 2,48.273 0.86,26.903 3.15,47.52 3.73,51.524 0.84,6.172 4.71,8.379 8.9,8.015 3.78,-0.332 7.71,-2.703 9.56,-5.222 1.16,-1.477 1.44,-3.457 1.45,-5.586 0,-2.121 -0.28,-4.797 -0.68,-8.059 -0.79,-6.297 -2,-14.89 -2.14,-25.926 l -0.68,-12.461 -0.04,-1.75 c 3.19,6.504 8.82,17.52 15.36,28.36 9.77,16.152 22.83,34.199 33.17,32.043 8.58,-1.848 12.28,-11.817 14.08,-25.207 1.83,-13.641 1.84,-32.266 1.84,-53.738 -0.3,-27.383 -0.29,-36.797 0.72,-39.551 l 2.35,-4.922 c 0.84,-1.8556 1.6,-3.8009 2.09,-5.6838 0.98,-3.8085 1.04,-8.0976 -2.62,-11.0156 -7.18,-6.4062 -23.34,4.2188 -18.98,17.2544 0.28,0.734 0.35,2.179 0.15,4.816 -0.21,2.578 -0.64,5.957 -1.1,10.301 -0.93,8.781 -2.01,21.476 -1.72,39.394 0.57,19.473 0.69,40.977 -1.98,44.836 -1.38,-1.133 -2.56,-2.461 -3.98,-4.394 -2.83,-3.84 -6.39,-9.707 -10.24,-16.868 -7.73,-14.296 -16.55,-33.554 -23.09,-51.582 -4.41,-11.472 -6.46,-19.062 -7.85,-24.089 -0.72,-2.618 -1.27,-4.5629 -1.85,-6.016 -0.62,-1.5547 -1.37,-2.8242 -2.59,-3.7305 l 0,0"
         style="fill:#236497;fill-opacity:1;fill-rule:nonzero;stroke:none"
         id="path36"
         inkscape:connector-curvature="0" /><path
         d="m 2369.02,90.4609 c -7.77,0 -11.98,5.8789 -11.98,13.3791 0,8.855 8.16,13.289 11.72,13.933 8.31,1.036 13.1,-6.289 13.1,-13.652 0,-8.0663 -3.36,-13.6601 -12.84,-13.6601 l 0,0"
         style="fill:#236497;fill-opacity:1;fill-rule:nonzero;stroke:none"
         id="path38"
         inkscape:connector-curvature="0" /><path
         d="m 2526.81,285.781 c 0.38,-4.949 0.04,-11.59 -0.69,-19.199 -1.42,-14.969 -4.35,-33.719 -6.07,-50.547 -3.14,-33.133 -3.63,-48.633 -3.63,-60.437 0,-11.739 0.48,-19.836 -0.61,-37.864 0.58,-0.859 1.8,-2.722 2.88,-5.046 1.45,-3.145 2.89,-7.532 1.88,-11.543 -1.61,-6.1255 -17.41,-13.6528 -22.63,-0.801 -4.51,10.801 3.35,143.718 5.03,157.148 1.58,11.035 1.59,22.078 3.31,29.531 1.84,7.977 6.08,12.969 15.85,9.168 3.25,-1.296 4.32,-5.722 4.68,-10.41 l 0,0"
         style="fill:#236497;fill-opacity:1;fill-rule:nonzero;stroke:none"
         id="path40"
         inkscape:connector-curvature="0" /><path
         d="m 2560.77,93.9375 c -3.1,-1.582 -9.57,-4.2578 -14.12,2.3828 -2.42,3.4453 -2.29,8.9647 -1.73,18.6017 0.57,9.894 1.71,24.922 1.99,48.273 0.86,26.903 3.17,47.52 3.73,51.524 0.84,6.172 4.71,8.379 8.9,8.015 3.79,-0.332 7.72,-2.703 9.57,-5.222 1.16,-1.477 1.44,-3.457 1.45,-5.586 0,-2.121 -0.29,-4.797 -0.68,-8.059 -0.79,-6.297 -2,-14.89 -2.15,-25.926 l -0.67,-12.461 -0.04,-1.75 c 3.19,6.504 8.81,17.52 15.36,28.36 9.76,16.152 22.83,34.199 33.17,32.043 8.57,-1.848 12.28,-11.817 14.08,-25.207 1.83,-13.641 1.83,-32.266 1.83,-53.738 -0.29,-27.383 -0.28,-36.797 0.73,-39.551 l 2.35,-4.922 c 0.83,-1.8556 1.59,-3.8009 2.08,-5.6838 0.99,-3.8085 1.05,-8.0976 -2.62,-11.0156 -7.18,-6.4062 -23.34,4.2188 -18.98,17.2544 0.28,0.734 0.36,2.179 0.16,4.816 -0.21,2.578 -0.64,5.957 -1.1,10.301 -0.94,8.781 -2.01,21.476 -1.72,39.394 0.57,19.473 0.69,40.977 -1.99,44.836 -1.37,-1.133 -2.55,-2.461 -3.98,-4.394 -2.83,-3.84 -6.38,-9.707 -10.24,-16.868 -7.72,-14.296 -16.54,-33.554 -23.08,-51.582 -4.41,-11.472 -6.47,-19.062 -7.86,-24.089 -0.72,-2.618 -1.26,-4.5629 -1.85,-6.016 -0.61,-1.5547 -1.37,-2.8242 -2.59,-3.7305 l 0,0"
         style="fill:#236497;fill-opacity:1;fill-rule:nonzero;stroke:none"
         id="path42"
         inkscape:connector-curvature="0" /><path
         d="m 2749.7,280.156 c -1.87,0.52 -3.68,1.406 -5.14,2.18 l -1.93,1.023 c -34.19,13.196 -48.38,-31.933 -47.79,-89.675 0,-3.918 0.21,-7.414 0.27,-11.204 12.53,1.622 21.66,1.692 28.28,1.731 7.21,0.027 10.63,0.117 12.5,1.434 6.86,4.785 17.29,-0.614 16.95,-9.434 -0.16,-4.57 -2.56,-7.168 -5.64,-8.543 -2.91,-1.281 -6.46,-1.496 -9.13,-1.641 -22.5,-0.82 -29.91,0.223 -42.66,-1.75 -0.03,-25.507 -0.64,-49.929 -4.02,-74.0817 -3.01,-20.5664 -6.8,-38.7891 -9.66,-52.4297 -2.95,-14.0547 -4.65,-22.4023 -4.11,-24.1328 1.74,-6.23046 -4.14,-17.48046 -17.39,-12.31249 -7.3,2.91016 -7.36,13.32809 -2.4,18.90629 1.65,2.1172 9.88,30.8789 14.48,69.5586 3.89,31.8478 3.99,45.0898 3.99,70.4488 -6.69,-1.414 -8.5,-2.793 -13.77,-10.3 -9.21,-13.282 -27.73,3.086 -16.89,13.554 5.24,5.516 11.62,11.524 30.38,15.586 0.04,4.492 0.28,9.453 0.28,14.883 0.28,99.063 36.66,112.852 64.24,108.613 18.11,-2.668 20.14,-11.132 19.41,-16.269 -1.74,-6.426 -6.26,-7.246 -10.25,-6.145 l 0,0"
         style="fill:#236497;fill-opacity:1;fill-rule:nonzero;stroke:none"
         id="path44"
         inkscape:connector-curvature="0" /><path
         d="m 2768.94,97.7734 c -14.31,7.2856 -29.13,36.8086 -16.23,65.7816 16.04,36.289 32.69,51.113 48.86,52.336 11.7,0.925 37.11,-8.789 42.1,-42.219 7.87,-54.68 -51.25,-87.7736 -74.73,-75.8986 l 0,0 z m 49.54,40.7616 c -5.66,-11.57 -27.28,-28.601 -39.05,-24.258 -11.47,4.063 -15.47,25.196 -11.27,36.914 7.34,21.27 16.75,32.551 24.18,38.489 3.71,2.968 6.96,4.629 9.24,5.535 2.18,0.871 5.28,1.308 5.28,1.308 l -0.16,0.801 c 10.18,-1.855 13.02,-6.152 16.32,-13.758 7.1,-15.254 3.09,-30.363 -4.54,-45.031 l 0,0"
         style="fill:#236497;fill-opacity:1;fill-rule:evenodd;stroke:none"
         id="path46"
         inkscape:connector-curvature="0" /><path
         d="m 2970.07,203.145 c -1.88,-0.438 -3.61,-0.204 -5.19,0.214 -1.43,0.383 -2.89,0.957 -4.47,1.407 -2.8,0.8 -5.97,1.132 -10.49,-1.446 -17.9,-10.047 -38.85,-34.531 -59.71,-65.332 -4.93,-7.781 -6.52,-16.914 -7.38,-24.91 -0.43,-4.043 -0.66,-7.726 -1.03,-10.703 -0.36,-2.8906 -0.88,-5.6172 -2.24,-7.2656 -4.65,-6.418 -12.81,-3.918 -16.56,0.1445 -3.57,3.5664 -3.07,9.9881 -2,18.2811 1.1,8.594 3.1,20.391 3.8,36.016 1.58,29.855 -0.42,45.078 -2.41,53.312 -1,4.141 -2.01,6.582 -2.59,8.25 -0.6,1.731 -1.06,3.371 0.15,5.168 1.7,2.547 8.92,10.164 16.86,2.578 4.92,-4.582 5.69,-12.031 6.25,-29.14 0.25,-13.926 0.28,-19.192 0.28,-29.571 2.16,2.754 5.33,6.747 9.15,11.329 7.23,8.679 16.78,19.511 26.01,27.996 3.3,3.078 6.68,6.465 10.29,9.687 3.64,3.262 7.58,6.399 11.92,8.867 8.76,4.993 19.15,7.227 32.09,2.618 3.63,-1.309 10.81,-13.934 -2.73,-17.5 l 0,0"
         style="fill:#236497;fill-opacity:1;fill-rule:nonzero;stroke:none"
         id="path48"
         inkscape:connector-curvature="0" /><path
         d="m 3104.79,207.742 c -0.87,-0.75 -1.79,-1.773 -2.94,-3.23 -2.32,-2.918 -5.33,-7.293 -8.71,-12.762 -6.82,-11.027 -15.13,-26.477 -22.24,-43.496 -8.26,-20.305 -11.87,-35.41 -14.51,-45.168 -1.3,-4.8438 -2.43,-8.6407 -3.84,-11.0626 -1.53,-2.6367 -3.67,-4.0546 -6.76,-3.2226 -6.47,1.414 -9.29,4.1015 -10.38,10.4765 -0.5,2.8827 -0.66,6.6327 -0.76,11.5817 -0.11,4.825 -0.16,10.832 -0.45,18.301 -1.47,42.957 -2.78,70.254 -5.47,71.906 -0.25,-0.07 -0.9,-0.273 -1.47,-0.722 -1.15,-0.899 -2.59,-2.52 -4.24,-4.844 -3.26,-4.641 -7.08,-11.691 -10.9,-20.195 -7.64,-17.012 -15.16,-39.551 -18.26,-59.473 -0.77,-4.562 -0.95,-8.027 -0.87,-10.715 0.08,-2.656 0.41,-4.551 0.65,-5.9842 0.55,-3.332 0.71,-5.293 -3.08,-7.8125 -4.14,-2.8633 -13.36,-2.9023 -16.38,1.6211 -2.53,4.043 -1.73,20.0276 -0.52,34.9886 1.25,15.39 3.11,31.105 3.4,35.656 1.12,10.137 0.49,18.621 -0.08,25.086 -0.28,3.34 -0.55,6.164 -0.57,8.437 -0.02,2.278 0.19,4.426 1.19,6.016 3.33,5.324 11.78,6.934 16.11,2.246 3.37,-3.621 4.99,-5.672 6.45,-13.75 1.99,4.035 5.07,10.031 8.59,16.027 5.82,9.911 13.78,21.649 20.29,21.649 5.48,0 12.46,-5.985 15.17,-11.094 3.04,-4.539 5.43,-25.605 7.35,-68.035 3.51,7.695 9.83,21.113 17.21,34.687 11.05,20.313 25.27,42.567 36.33,44.137 7.69,1.047 17.84,-11.336 19.6,-18.347 4.09,-14.59 3.18,-79.903 2.91,-85.215 -0.06,-1.114 0.14,-2.422 0.5,-3.926 l 1.29,-4.707 c 0.83,-3.067 1.65,-6.856 -0.02,-9.824 -2.64,-4.266 -12.64,-7.6371 -16.67,0.05 -2.85,5.059 -3.42,18.731 -3.39,32.508 0.04,14.016 0.75,28.907 0.89,37.043 0,5.203 -0.28,12.578 -1.26,19.051 -0.93,6.125 -2.43,10.508 -4.16,12.117 l 0,0"
         style="fill:#236497;fill-opacity:1;fill-rule:nonzero;stroke:none"
         id="path50"
         inkscape:connector-curvature="0" /><path
         d="m 3360.64,212.766 c -3.62,-0.11 -7.93,0.898 -10.37,0.898 -16.87,0 -31.72,-4.25 -42.26,-6.562 -1.07,-8.821 -7.68,-64.934 -5.84,-99.7 l 0.82,-3.367 c 0.39,-1.672 0.78,-3.762 0.72,-5.8006 -0.14,-4.4649 -2.55,-8.5547 -9.92,-8.0586 -5.5,0.3437 -8.42,4.1914 -9.9,7.9492 -1.46,3.742 -1.68,7.824 -1.68,9.484 0.86,12.84 0.01,30.594 3.15,59.715 1.87,18.887 2.98,25.117 4.29,35.821 l -5.85,-1.583 c -4.71,-1.367 -10.69,-3.328 -15.75,-5.71 -6.27,-2.922 -10.24,-5.84 -13.11,-7.961 l -2,-1.453 -1.81,-1.145 c -1.18,-0.625 -2.5,-1.035 -3.94,-0.676 -5.48,1.438 -11.67,5.688 -9.77,12.121 1.67,5.02 2.86,7.578 18.72,13.625 16.03,6.172 19.95,7.676 36.27,12.039 0.8,4.903 4.17,26.172 6.66,53.547 0.29,3.406 -0.64,9.356 -0.43,14.461 0.21,5.02 1.59,11.035 8.13,11.035 9.06,0 12.45,-11.562 9.69,-37.793 -1.66,-16.394 -3.3,-21.289 -5.69,-37.929 6.28,1.125 20.27,4.511 39.3,3.586 l 5.13,-0.247 c 1.91,-0.136 3.89,-0.371 5.68,-0.847 3.67,-0.957 7.3,-3.117 7.66,-7.891 0.38,-5.918 -3.97,-7.441 -7.9,-7.558 l 0,0"
         style="fill:#236497;fill-opacity:1;fill-rule:nonzero;stroke:none"
         id="path52"
         inkscape:connector-curvature="0" /><path
         d="m 3425.57,97.7734 c -14.3,7.2856 -29.11,36.8086 -16.21,65.7816 16.03,36.289 32.68,51.113 48.85,52.336 11.7,0.925 37.11,-8.789 42.1,-42.219 7.87,-54.68 -51.25,-87.7736 -74.74,-75.8986 l 0,0 z m 49.55,40.7616 c -5.66,-11.57 -27.28,-28.601 -39.06,-24.258 -11.46,4.063 -15.45,25.196 -11.26,36.914 7.34,21.27 16.75,32.551 24.18,38.489 3.72,2.968 6.97,4.629 9.24,5.535 2.18,0.871 5.29,1.308 5.29,1.308 l -0.17,0.801 c 10.18,-1.855 13.02,-6.152 16.32,-13.758 7.1,-15.254 3.09,-30.363 -4.54,-45.031 l 0,0"
         style="fill:#236497;fill-opacity:1;fill-rule:evenodd;stroke:none"
         id="path54"
         inkscape:connector-curvature="0" /><path
         d="m 3532.73,93.9375 c -3.09,-1.582 -9.57,-4.2578 -14.12,2.3828 -2.42,3.4453 -2.28,8.9647 -1.72,18.6017 0.56,9.894 1.7,24.922 1.99,48.273 0.85,26.903 3.16,47.52 3.73,51.524 0.84,6.172 4.7,8.379 8.91,8.015 3.77,-0.332 7.69,-2.703 9.55,-5.222 1.16,-1.477 1.43,-3.457 1.45,-5.586 0.01,-2.121 -0.29,-4.797 -0.68,-8.047 -0.79,-6.309 -2,-14.902 -2.14,-25.938 l -0.68,-12.461 -0.04,-1.75 c 3.19,6.504 8.82,17.52 15.37,28.36 9.75,16.152 22.82,34.199 33.16,32.043 8.58,-1.848 12.29,-11.817 14.08,-25.207 1.83,-13.641 1.84,-32.266 1.84,-53.738 -0.29,-27.383 -0.29,-36.797 0.72,-39.551 l 2.35,-4.922 c 0.84,-1.8556 1.6,-3.8009 2.09,-5.6838 0.98,-3.8085 1.04,-8.0976 -2.62,-11.0156 -7.18,-6.4062 -23.34,4.2188 -18.99,17.2544 0.29,0.734 0.36,2.179 0.16,4.816 -0.21,2.578 -0.64,5.957 -1.1,10.301 -0.93,8.781 -2.01,21.476 -1.72,39.394 0.57,19.473 0.69,40.977 -1.98,44.836 -1.38,-1.133 -2.55,-2.461 -3.99,-4.394 -2.82,-3.84 -6.38,-9.707 -10.24,-16.868 -7.72,-14.296 -16.54,-33.554 -23.09,-51.582 -4.4,-11.472 -6.46,-19.062 -7.84,-24.089 -0.72,-2.618 -1.27,-4.5629 -1.86,-6.016 -0.61,-1.5547 -1.36,-2.8242 -2.59,-3.7305 l 0,0"
         style="fill:#236497;fill-opacity:1;fill-rule:nonzero;stroke:none"
         id="path56"
         inkscape:connector-curvature="0" /><path
         d="m 3640.25,90.4609 c -7.77,0 -11.99,5.8789 -11.99,13.3791 0,8.855 8.17,13.289 11.73,13.933 8.31,1.036 13.1,-6.289 13.1,-13.652 0,-8.0663 -3.36,-13.6601 -12.84,-13.6601 l 0,0"
         style="fill:#236497;fill-opacity:1;fill-rule:nonzero;stroke:none"
         id="path58"
         inkscape:connector-curvature="0" /><path
         d="m 3798.04,285.781 c 0.38,-4.949 0.03,-11.59 -0.68,-19.199 -1.44,-14.969 -4.36,-33.719 -6.08,-50.547 -3.14,-33.133 -3.64,-48.633 -3.64,-60.437 0,-11.739 0.5,-19.836 -0.6,-37.864 0.59,-0.859 1.79,-2.722 2.88,-5.046 1.46,-3.145 2.89,-7.532 1.89,-11.543 -1.61,-6.1255 -17.42,-13.6528 -22.64,-0.801 -4.51,10.801 3.35,143.718 5.03,157.148 1.57,11.035 1.59,22.078 3.31,29.531 1.85,7.977 6.08,12.969 15.85,9.168 3.25,-1.296 4.32,-5.722 4.68,-10.41 l 0,0"
         style="fill:#236497;fill-opacity:1;fill-rule:nonzero;stroke:none"
         id="path60"
         inkscape:connector-curvature="0" /><path
         d="m 3832,93.9375 c -3.11,-1.582 -9.57,-4.2578 -14.13,2.3828 -2.41,3.4453 -2.27,8.9647 -1.72,18.6017 0.57,9.894 1.71,24.922 1.99,48.273 0.86,26.903 3.16,47.52 3.74,51.524 0.83,6.172 4.7,8.379 8.89,8.015 3.79,-0.332 7.71,-2.703 9.56,-5.222 1.17,-1.477 1.44,-3.457 1.45,-5.586 0.01,-2.121 -0.28,-4.797 -0.69,-8.047 -0.77,-6.309 -1.98,-14.902 -2.13,-25.938 l -0.67,-12.461 -0.05,-1.75 c 3.2,6.504 8.82,17.52 15.37,28.36 9.76,16.152 22.83,34.199 33.17,32.043 8.57,-1.848 12.28,-11.817 14.07,-25.207 1.84,-13.641 1.85,-32.266 1.85,-53.738 -0.3,-27.383 -0.29,-36.797 0.72,-39.551 l 2.35,-4.922 c 0.83,-1.8556 1.59,-3.8009 2.08,-5.6838 0.99,-3.8085 1.04,-8.0976 -2.62,-11.0156 -7.17,-6.4062 -23.34,4.2188 -18.98,17.2544 0.27,0.734 0.36,2.179 0.14,4.816 -0.19,2.578 -0.62,5.957 -1.09,10.301 -0.92,8.781 -2,21.476 -1.71,39.394 0.56,19.473 0.69,40.977 -1.99,44.836 -1.37,-1.133 -2.55,-2.461 -3.97,-4.394 -2.83,-3.84 -6.39,-9.707 -10.25,-16.868 -7.72,-14.296 -16.54,-33.554 -23.09,-51.582 -4.4,-11.472 -6.46,-19.062 -7.84,-24.089 -0.73,-2.618 -1.27,-4.5629 -1.86,-6.016 -0.61,-1.5547 -1.37,-2.8242 -2.59,-3.7305 l 0,0"
         style="fill:#236497;fill-opacity:1;fill-rule:nonzero;stroke:none"
         id="path62"
         inkscape:connector-curvature="0" /><path
         d="m 3939.1,93.9375 c -3.1,-1.582 -9.57,-4.2578 -14.13,2.3828 -2.42,3.4453 -2.28,8.9647 -1.73,18.6017 0.58,9.894 1.72,24.922 2.01,48.273 0.86,26.903 3.15,47.52 3.73,51.524 0.82,6.172 4.7,8.379 8.89,8.015 3.78,-0.332 7.7,-2.703 9.56,-5.222 1.16,-1.477 1.44,-3.457 1.45,-5.586 0.01,-2.121 -0.29,-4.797 -0.69,-8.059 -0.78,-6.297 -1.99,-14.89 -2.13,-25.926 l -0.68,-12.461 -0.04,-1.757 c 3.2,6.511 8.82,17.527 15.36,28.367 9.76,16.152 22.84,34.199 33.17,32.043 8.58,-1.848 12.28,-11.817 14.08,-25.207 1.82,-13.641 1.84,-32.266 1.84,-53.738 -0.3,-27.383 -0.28,-36.797 0.72,-39.551 l 2.35,-4.922 c 0.84,-1.8556 1.6,-3.8009 2.09,-5.6838 0.98,-3.8085 1.03,-8.0976 -2.61,-11.0156 -7.2,-6.4062 -23.34,4.2188 -18.99,17.2544 0.27,0.734 0.36,2.179 0.15,4.816 -0.21,2.578 -0.64,5.957 -1.1,10.301 -0.94,8.781 -2.01,21.476 -1.72,39.394 0.57,19.473 0.69,40.977 -1.99,44.836 -1.38,-1.133 -2.55,-2.461 -3.97,-4.394 -2.83,-3.84 -6.39,-9.707 -10.25,-16.868 -7.71,-14.296 -16.54,-33.554 -23.08,-51.582 -4.41,-11.472 -6.47,-19.062 -7.85,-24.089 -0.72,-2.618 -1.27,-4.5629 -1.85,-6.016 -0.63,-1.5547 -1.38,-2.8242 -2.59,-3.7305 l 0,0"
         style="fill:#236497;fill-opacity:1;fill-rule:nonzero;stroke:none"
         id="path64"
         inkscape:connector-curvature="0" /><path
         d="m 4046.69,97.7734 c -14.3,7.2856 -29.12,36.8086 -16.21,65.7816 16.04,36.289 32.67,51.113 48.86,52.336 11.7,0.925 37.1,-8.789 42.1,-42.219 7.87,-54.68 -51.25,-87.7736 -74.75,-75.8986 l 0,0 z m 49.55,40.7616 c -5.67,-11.57 -27.28,-28.601 -39.06,-24.258 -11.46,4.063 -15.45,25.196 -11.26,36.914 7.34,21.27 16.75,32.551 24.18,38.489 3.72,2.968 6.96,4.629 9.25,5.535 2.17,0.871 5.28,1.308 5.28,1.308 l -0.17,0.801 c 10.18,-1.855 13.02,-6.152 16.32,-13.758 7.09,-15.254 3.09,-30.363 -4.54,-45.031 l 0,0"
         style="fill:#236497;fill-opacity:1;fill-rule:evenodd;stroke:none"
         id="path66"
         inkscape:connector-curvature="0" /><path
         d="m 4249.08,204.074 c -12.56,-10.324 -60.74,-83.351 -65.26,-93.508 -1.6,-3.632 -4.28,-8.554 -7.75,-12.0191 -3.47,-3.4688 -8.2,-5.8399 -13.45,-3.0469 -3.6,1.8828 -5.65,5.781 -7,9.559 -1.32,3.742 -2.12,7.843 -2.99,10.871 -7.13,25.34 -12.25,50.371 -14.82,57.773 -1.43,3.731 -3.87,9.383 -5.45,14.59 -0.81,2.637 -1.42,5.242 -1.56,7.5 -0.14,2.148 0.18,4.519 1.77,5.996 4.5,3.738 9.65,1.668 13.67,-2.531 4.07,-4.246 7.76,-11.25 10.22,-19.383 3.73,-14.27 2.88,-18 7.73,-37.109 1.24,-4.7 2.27,-9.817 4.37,-17.063 4.99,7.336 18.54,27.16 32.63,46.445 l 27.05,35.899 c 8.22,10.976 13.84,18.801 14.15,19.844 0.72,1.711 3.05,7.14 6.22,10.988 3.12,3.777 8.2,7.117 13.21,1.551 9.57,-10.535 -2.5,-27.52 -12.74,-36.356 l 0,0"
         style="fill:#236497;fill-opacity:1;fill-rule:nonzero;stroke:none"
         id="path68"
         inkscape:connector-curvature="0" /><path
         d="m 4469.18,212.188 c -3.62,-0.106 -7.93,0.89 -10.37,0.89 -16.88,0 -35.65,-3.664 -46.18,-5.976 -1.08,-8.821 -7.69,-64.934 -5.85,-99.7 l 0.82,-3.367 c 0.39,-1.672 0.78,-3.762 0.72,-5.8006 -0.14,-4.4649 -2.54,-8.5547 -9.91,-8.0586 -5.51,0.3437 -8.43,4.1914 -9.9,7.9492 -1.47,3.742 -1.69,7.813 -1.69,9.484 0.86,12.84 0,30.594 3.15,59.715 1.87,18.887 2.99,25.117 4.29,35.821 -4.38,-1.102 -14.03,-3.739 -21.6,-7.293 -6.27,-2.93 -10.24,-5.84 -13.1,-7.961 l -2.01,-1.453 -1.81,-1.145 c -1.17,-0.625 -2.5,-1.035 -3.94,-0.676 -5.48,1.438 -11.66,5.688 -9.77,12.121 1.67,5.02 2.87,7.578 18.73,13.625 16.03,6.172 19.93,7.676 36.26,12.039 0.8,4.903 4.17,26.172 6.66,53.547 0.28,3.406 -0.64,9.356 -0.43,14.461 0.21,5.02 1.59,11.035 8.13,11.035 9.06,0 12.45,-11.562 9.68,-37.793 -1.65,-16.394 -3.29,-21.289 -5.68,-37.929 6.28,1.125 24.19,3.925 43.23,3.007 l 5.12,-0.242 c 1.92,-0.136 3.9,-0.383 5.7,-0.851 3.66,-0.957 7.28,-3.114 7.64,-7.899 0.39,-5.91 -3.96,-7.433 -7.89,-7.55 l 0,0"
         style="fill:#236497;fill-opacity:1;fill-rule:nonzero;stroke:none"
         id="path70"
         inkscape:connector-curvature="0" /><path
         d="m 4530.19,97.7734 c -14.31,7.2856 -29.13,36.8086 -16.21,65.7816 16.02,36.289 32.67,51.113 48.84,52.336 11.71,0.925 37.11,-8.789 42.1,-42.219 7.87,-54.68 -51.25,-87.7736 -74.73,-75.8986 l 0,0 z m 49.54,40.7616 c -5.66,-11.57 -27.28,-28.613 -39.05,-24.258 -11.47,4.063 -15.47,25.196 -11.27,36.914 7.34,21.27 16.75,32.551 24.18,38.489 3.71,2.968 6.97,4.629 9.25,5.535 2.18,0.871 5.28,1.308 5.28,1.308 l -0.17,0.801 c 10.19,-1.855 13.02,-6.152 16.32,-13.758 7.1,-15.254 3.09,-30.363 -4.54,-45.031 l 0,0"
         style="fill:#236497;fill-opacity:1;fill-rule:evenodd;stroke:none"
         id="path72"
         inkscape:connector-curvature="0" /><path
         d="m 4637.36,93.9375 c -3.11,-1.582 -9.59,-4.2578 -14.14,2.3828 -2.42,3.4453 -2.28,8.9647 -1.72,18.6017 0.56,9.894 1.7,24.922 1.98,48.273 0.87,26.903 3.17,47.52 3.74,51.524 0.84,6.172 4.71,8.379 8.9,8.015 3.78,-0.332 7.71,-2.703 9.56,-5.222 1.16,-1.477 1.44,-3.457 1.45,-5.586 0.01,-2.121 -0.28,-4.797 -0.68,-8.059 -0.79,-6.297 -2,-14.89 -2.13,-25.926 l -0.69,-12.461 -0.04,-1.75 c 3.2,6.504 8.82,17.52 15.37,28.36 9.76,16.152 22.83,34.199 33.16,32.043 8.58,-1.848 12.29,-11.817 14.08,-25.207 1.83,-13.641 1.84,-32.266 1.84,-53.738 -0.29,-27.383 -0.29,-36.797 0.72,-39.551 l 2.35,-4.922 c 0.83,-1.8556 1.6,-3.8009 2.08,-5.6838 0.99,-3.8085 1.05,-8.0976 -2.61,-11.0156 -7.18,-6.4062 -23.35,4.2188 -18.98,17.2544 0.28,0.734 0.35,2.179 0.15,4.816 -0.21,2.578 -0.64,5.957 -1.09,10.301 -0.94,8.781 -2.02,21.476 -1.73,39.394 0.57,19.473 0.69,40.977 -1.99,44.836 -1.37,-1.133 -2.55,-2.461 -3.97,-4.394 -2.83,-3.84 -6.39,-9.707 -10.24,-16.868 -7.72,-14.296 -16.55,-33.554 -23.09,-51.582 -4.41,-11.472 -6.46,-19.062 -7.85,-24.089 -0.73,-2.618 -1.27,-4.5629 -1.85,-6.016 -0.62,-1.5547 -1.38,-2.8242 -2.58,-3.7305 l 0,0"
         style="fill:#236497;fill-opacity:1;fill-rule:nonzero;stroke:none"
         id="path74"
         inkscape:connector-curvature="0" /><path
         d="m 4744.86,90.4609 c -7.77,0 -11.99,5.8789 -11.99,13.3791 0,8.855 8.17,13.289 11.73,13.933 8.31,1.036 13.1,-6.289 13.1,-13.652 0,-8.0663 -3.36,-13.6601 -12.84,-13.6601 l 0,0"
         style="fill:#236497;fill-opacity:1;fill-rule:nonzero;stroke:none"
         id="path76"
         inkscape:connector-curvature="0" /><path
         d="m 4347.86,93.1953 c 0,-4.8359 -2.15,-7.2461 -6.45,-7.2461 -9.69,0 -17.67,6.168 -23.95,18.5238 -4.48,8.957 -7.45,19.336 -8.87,31.152 -21.36,-29.004 -40.74,-43.5078 -58.13,-43.5078 -6.28,0 -11.48,3.2266 -15.62,9.6718 -3.58,5.731 -5.38,11.902 -5.38,18.535 0,7.52 3.05,17.899 9.15,31.153 5.02,10.918 10.41,20.585 16.15,29.003 7.54,10.743 13.63,18.438 18.3,23.094 7.71,7.696 14.89,11.543 21.53,11.543 9.68,0 16.33,-3.398 19.91,-10.203 1.25,-2.324 2.6,-7.883 4.04,-16.652 4.3,-1.61 6.9,-2.684 7.8,-3.223 2.51,-1.609 3.77,-3.934 3.77,-6.98 -0.18,-1.075 -0.27,-1.875 -0.27,-2.414 -0.18,-1.258 -0.72,-2.957 -1.62,-5.106 -1.97,-5.195 -2.95,-10.742 -2.95,-16.652 0,-9.492 2.5,-19.961 7.53,-31.414 0.53,-1.262 5.56,-11.016 15.06,-29.2777 l 0,0 z m -39.81,87.5467 c 0,1.074 -0.82,2.238 -2.44,3.488 -4.11,3.047 -6.54,7.254 -7.26,12.625 -11.49,-5.195 -22.87,-17.449 -34.17,-36.785 -10.23,-17.375 -15.34,-30.351 -15.34,-38.945 0,-6.086 1.97,-9.133 5.92,-9.133 5.38,0 15.24,8.059 29.6,24.172 15.78,17.723 23.69,32.586 23.69,44.578 l 0,0"
         style="fill:#236497;fill-opacity:1;fill-rule:evenodd;stroke:none"
         id="path78"
         inkscape:connector-curvature="0" /><path
         d="m 3260.28,93.1953 c 0,-4.8359 -2.16,-7.2461 -6.46,-7.2461 -9.69,0 -17.67,6.168 -23.94,18.5238 -4.5,8.957 -7.46,19.336 -8.9,31.152 -21.33,-29.004 -40.71,-43.5078 -58.12,-43.5078 -6.27,0 -11.47,3.2266 -15.6,9.6718 -3.59,5.731 -5.38,11.902 -5.38,18.535 0,7.52 3.05,17.899 9.14,31.153 5.03,10.918 10.42,20.585 16.15,29.003 7.54,10.743 13.63,18.438 18.3,23.094 7.71,7.696 14.89,11.543 21.52,11.543 9.69,0 16.33,-3.398 19.92,-10.203 1.25,-2.324 2.6,-7.883 4.04,-16.652 4.3,-1.61 6.9,-2.684 7.8,-3.223 2.51,-1.609 3.77,-3.934 3.77,-6.98 -0.18,-1.075 -0.27,-1.875 -0.27,-2.414 -0.18,-1.258 -0.72,-2.957 -1.61,-5.106 -1.98,-5.195 -2.96,-10.742 -2.96,-16.652 0,-9.492 2.51,-19.961 7.53,-31.414 0.54,-1.262 5.56,-11.016 15.07,-29.2777 l 0,0 z m -39.83,87.5467 c 0,1.074 -0.81,2.238 -2.42,3.488 -4.12,3.047 -6.55,7.254 -7.27,12.625 -11.48,-5.195 -22.87,-17.449 -34.18,-36.785 -10.21,-17.375 -15.33,-30.351 -15.33,-38.945 0,-6.086 1.97,-9.133 5.92,-9.133 5.38,0 15.25,8.059 29.61,24.172 15.78,17.723 23.67,32.586 23.67,44.578 l 0,0"
         style="fill:#236497;fill-opacity:1;fill-rule:evenodd;stroke:none"
         id="path80"
         inkscape:connector-curvature="0" /><path
         d="m 4507.63,259.805 c 0,-6.328 -3.42,-9.493 -10.25,-9.493 -3.51,0 -6.93,1.418 -10.26,4.25 -3.34,2.821 -5.01,5.985 -5.01,9.481 0,2.668 1.08,4.992 3.25,6.992 2.17,1.992 4.59,2.988 7.26,2.988 4.33,0 7.92,-1.328 10.75,-3.992 2.84,-2.492 4.26,-5.898 4.26,-10.226 l 0,0"
         style="fill:#236497;fill-opacity:1;fill-rule:nonzero;stroke:none"
         id="path82"
         inkscape:connector-curvature="0" /><path
         d="m 4485.85,132.832 c -0.71,-11.035 0.76,-15.137 1.9,-17.859 l 0.88,-2.149 c 0.28,-0.754 0.5,-1.543 0.62,-2.461 0.23,-1.836 0.01,-3.898 -0.88,-6.933 -1.24,-5.7738 -9.89,-7.8909 -16.41,-2.629 -4,3.086 -4.49,12.402 -4.15,25.402 0.37,13.485 1.79,32.324 2.93,56.152 0.44,7.899 0.37,15.957 1.38,22.11 0.99,6.055 3.26,11.629 9.36,12 6.74,0.351 12.16,-5.965 11.22,-14.422 -0.86,-7.981 -6.28,-58.105 -6.85,-69.211 l 0,0"
         style="fill:#236497;fill-opacity:1;fill-rule:nonzero;stroke:none"
         id="path84"
         inkscape:connector-curvature="0" /><path
         d="m 3398.64,259.805 c 0,-6.328 -3.41,-9.493 -10.25,-9.493 -3.51,0 -6.93,1.418 -10.25,4.25 -3.34,2.821 -5.02,5.985 -5.02,9.481 0,2.668 1.09,4.992 3.26,6.992 2.17,1.992 4.59,2.988 7.25,2.988 4.34,0 7.92,-1.328 10.76,-3.992 2.84,-2.492 4.25,-5.898 4.25,-10.226 l 0,0"
         style="fill:#236497;fill-opacity:1;fill-rule:nonzero;stroke:none"
         id="path86"
         inkscape:connector-curvature="0" /><path
         d="m 3376.86,132.832 c -0.7,-11.035 0.77,-15.137 1.91,-17.859 l 0.88,-2.149 c 0.27,-0.754 0.49,-1.543 0.62,-2.461 0.23,-1.836 0,-3.898 -0.88,-6.933 -1.25,-5.7738 -9.9,-7.8909 -16.42,-2.629 -3.99,3.086 -4.49,12.402 -4.14,25.402 0.36,13.485 1.78,32.324 2.93,56.152 0.44,7.899 0.37,15.957 1.38,22.11 0.99,6.055 3.25,11.629 9.36,12 6.74,0.351 12.16,-5.965 11.21,-14.422 -0.85,-7.981 -6.28,-58.105 -6.85,-69.211 l 0,0"
         style="fill:#236497;fill-opacity:1;fill-rule:nonzero;stroke:none"
         id="path88"
         inkscape:connector-curvature="0" /><path
         d="m 1899.28,259.805 c 0,-6.328 -3.42,-9.493 -10.25,-9.493 -3.51,0 -6.92,1.418 -10.26,4.25 -3.34,2.821 -5,5.985 -5,9.481 0,2.668 1.09,4.992 3.25,6.992 2.17,1.992 4.59,2.988 7.26,2.988 4.33,0 7.92,-1.328 10.75,-3.992 2.84,-2.492 4.25,-5.898 4.25,-10.226 l 0,0"
         style="fill:#236497;fill-opacity:1;fill-rule:nonzero;stroke:none"
         id="path90"
         inkscape:connector-curvature="0" /><path
         d="m 1877.5,132.832 c -0.69,-11.035 0.77,-15.137 1.91,-17.859 l 0.88,-2.149 c 0.28,-0.754 0.5,-1.543 0.62,-2.461 0.23,-1.836 0,-3.898 -0.89,-6.933 -1.23,-5.7738 -9.89,-7.8909 -16.41,-2.629 -4,3.086 -4.49,12.402 -4.14,25.402 0.36,13.485 1.79,32.324 2.93,56.152 0.43,7.899 0.37,15.957 1.38,22.11 0.99,6.055 3.26,11.629 9.36,12 6.74,0.351 12.16,-5.965 11.22,-14.422 -0.86,-7.981 -6.29,-58.105 -6.86,-69.211 l 0,0"
         style="fill:#236497;fill-opacity:1;fill-rule:nonzero;stroke:none"
         id="path92"
         inkscape:connector-curvature="0" /></g></g></svg>